<svg width="14" height="15" viewBox="0 0 14 15" fill="none" xmlns="http://www.w3.org/2000/svg">
<path d="M6.33325 6.38954H7.66659V10.834H6.33325V6.38954ZM6.33325 4.16732H7.66659V5.42401H6.33325V4.16732ZM6.99325 0.833984C3.31325 0.833984 0.333252 3.82065 0.333252 7.50065C0.333252 11.1807 3.31325 14.1673 6.99325 14.1673C10.6799 14.1673 13.6666 11.1807 13.6666 7.50065C13.6666 3.82065 10.6799 0.833984 6.99325 0.833984ZM6.99992 12.834C4.05325 12.834 1.66659 10.4473 1.66659 7.50065C1.66659 4.55398 4.05325 2.16732 6.99992 2.16732C9.94659 2.16732 12.3333 4.55398 12.3333 7.50065C12.3333 10.4473 9.94659 12.834 6.99992 12.834Z" fill="white"/>
</svg>
