<svg width="16" height="14" viewBox="0 0 16 14" fill="none" xmlns="http://www.w3.org/2000/svg">
<path d="M1.33337 5.75C0.641707 5.75 0.083374 6.30833 0.083374 7C0.083374 7.69167 0.641707 8.25 1.33337 8.25C2.02504 8.25 2.58337 7.69167 2.58337 7C2.58337 6.30833 2.02504 5.75 1.33337 5.75ZM1.33337 0.75C0.641707 0.75 0.083374 1.30833 0.083374 2C0.083374 2.69167 0.641707 3.25 1.33337 3.25C2.02504 3.25 2.58337 2.69167 2.58337 2C2.58337 1.30833 2.02504 0.75 1.33337 0.75ZM1.33337 10.75C0.641707 10.75 0.083374 11.3167 0.083374 12C0.083374 12.6833 0.650041 13.25 1.33337 13.25C2.01671 13.25 2.58337 12.6833 2.58337 12C2.58337 11.3167 2.02504 10.75 1.33337 10.75ZM3.83337 12.8333H15.5V11.1667H3.83337V12.8333ZM3.83337 7.83333H15.5V6.16667H3.83337V7.83333ZM3.83337 1.16667V2.83333H15.5V1.16667H3.83337Z" fill="white"/>
</svg>
