<svg width="12" height="15" viewBox="0 0 12 15" fill="none" xmlns="http://www.w3.org/2000/svg">
<path d="M6.00008 7.49992C5.26675 7.49992 4.66675 6.89992 4.66675 6.16659C4.66675 5.43325 5.26675 4.83325 6.00008 4.83325C6.73341 4.83325 7.33341 5.43325 7.33341 6.16659C7.33341 6.89992 6.73341 7.49992 6.00008 7.49992ZM10.0001 6.29992C10.0001 3.87992 8.23341 2.16659 6.00008 2.16659C3.76675 2.16659 2.00008 3.87992 2.00008 6.29992C2.00008 7.85992 3.30008 9.92659 6.00008 12.3933C8.70008 9.92659 10.0001 7.85992 10.0001 6.29992ZM6.00008 0.833252C8.80008 0.833252 11.3334 2.97992 11.3334 6.29992C11.3334 8.51325 9.55341 11.1333 6.00008 14.1666C2.44675 11.1333 0.666748 8.51325 0.666748 6.29992C0.666748 2.97992 3.20008 0.833252 6.00008 0.833252Z" fill="#A6A6A6"/>
</svg>
